<?xml version="1.0" encoding="UTF-8" standalone="no"?>
<svg
   id="svg"
   version="1.1"
   width="900"
   height="600"
   viewBox="0 0 900 600"
   sodipodi:docname="United League of Arakan flag.svg"
   inkscape:version="1.1.1 (3bf5ae0d25, 2021-09-20)"
   xmlns:inkscape="http://www.inkscape.org/namespaces/inkscape"
   xmlns:sodipodi="http://sodipodi.sourceforge.net/DTD/sodipodi-0.dtd"
   xmlns="http://www.w3.org/2000/svg"
   xmlns:svg="http://www.w3.org/2000/svg"
   xmlns:rdf="http://www.w3.org/1999/02/22-rdf-syntax-ns#"
   xmlns:cc="http://creativecommons.org/ns#"
   xmlns:dc="http://purl.org/dc/elements/1.1/">
  <metadata
     id="metadata10">
    <rdf:RDF>
      <cc:Work
         rdf:about="">
        <dc:format>image/svg+xml</dc:format>
        <dc:type
           rdf:resource="http://purl.org/dc/dcmitype/StillImage" />
      </cc:Work>
    </rdf:RDF>
  </metadata>
  <defs
     id="defs8" />
  <sodipodi:namedview
     pagecolor="#ffffff"
     bordercolor="#666666"
     borderopacity="1"
     objecttolerance="10"
     gridtolerance="10"
     guidetolerance="10"
     inkscape:pageopacity="0"
     inkscape:pageshadow="2"
     inkscape:window-width="1920"
     inkscape:window-height="1017"
     id="namedview6"
     showgrid="false"
     inkscape:zoom="0.67875"
     inkscape:cx="471.45488"
     inkscape:cy="382.32044"
     inkscape:window-x="-8"
     inkscape:window-y="-8"
     inkscape:window-maximized="1"
     inkscape:current-layer="svg"
     inkscape:pagecheckerboard="0"
     showguides="false" />
  <path
     id="rect837"
     style="fill:#ec201c;fill-rule:evenodd;stroke-width:4.6489"
     d="M 0,0 H 900 V 600 H 0 Z" />
  <path
     id="path2"
     d="m 369.42521,40.450481 c -28.89349,6.611351 -39.47019,43.252283 -18.40843,63.767959 18.66863,18.18489 48.93643,12.34316 60.39268,-11.650467 13.12007,-27.475195 -12.21853,-58.926737 -41.98425,-52.117492 m 18.03827,12.11592 c 11.37196,4.679979 18.07858,18.906836 14.58234,30.931127 -8.3558,28.732242 -49.98823,22.784232 -49.98823,-7.142743 0,-18.595326 18.24352,-30.854172 35.40589,-23.788384 m 108.91863,4.81191 c -0.71097,2.235553 1.7078,11.137406 4.54072,16.733605 13.04678,25.738063 55.9582,32.408044 78.35403,12.174546 6.14585,-5.548549 4.84121,-7.325985 -3.77484,-5.149075 -23.73333,5.991983 -53.92423,-1.946032 -69.49607,-18.265501 -6.99983,-7.340648 -8.72597,-8.322814 -9.62384,-5.493575 M 372.75654,70.982147 c -3.28003,3.280025 -3.1884,7.032802 0.26386,10.481411 6.40977,6.413448 15.77341,-1.015166 11.55519,-9.16573 -2.33815,-4.522403 -7.98198,-5.152756 -11.81905,-1.315681 M 295.67059,126.9074 c -39.76337,4.95117 -69.15163,38.51366 -78.84142,90.03745 -2.63868,14.03993 -4.99148,17.44822 -13.96666,20.22251 -11.69811,3.61351 -17.00844,1.03347 -11.45991,-5.55955 9.77776,-11.62117 -3.69046,-28.38407 -17.69376,-22.02561 -14.57135,6.61868 -14.91952,26.95848 -0.63036,36.7289 6.53072,4.46743 28.34377,2.63502 39.96127,-3.35698 10.77824,-5.55955 14.57501,9.06677 6.50873,25.08573 -5.78676,11.49656 -10.25053,12.31748 -17.33829,3.19207 -5.33232,-6.86788 -8.69297,-8.82859 -14.89753,-8.68197 -16.62365,0.38846 -24.07057,17.95765 -12.79391,30.19083 14.86455,16.12523 37.91263,8.83955 49.20396,-15.55352 6.90088,-14.91585 10.41178,-13.85305 17.74875,5.37262 6.43177,16.84722 6.44643,21.78008 0.088,34.4054 -6.18256,12.28083 -11.06778,13.63315 -17.81104,4.93285 -5.80875,-7.4909 -9.15108,-9.62016 -15.11007,-9.62016 -21.21936,0 -24.04126,29.86467 -3.54389,37.53515 16.65297,6.23019 30.72224,-3.8444 44.75485,-32.03791 6.09461,-12.24419 8.61233,-13.1384 13.8677,-4.92186 7.14274,11.16305 9.00448,16.46605 9.02647,25.69043 0.033,13.08343 -3.23604,15.98596 -14.25618,12.65098 -17.41158,-5.27369 -28.06891,12.89652 -14.89384,25.39725 15.84669,15.0441 40.62459,-2.46643 40.62459,-28.71026 0,-10.21387 8.13956,-6.33282 14.68861,6.99982 9.89504,20.13822 7.30402,37.94194 -4.69464,32.29078 -12.16721,-5.72812 -24.42973,0.23822 -23.46954,11.4196 1.71515,19.94398 32.11121,16.45141 39.59479,-4.54805 7.35895,-20.66229 -1.70781,-47.34955 -26.07158,-76.7268 -4.17789,-5.03913 -9.26101,-11.63582 -11.295,-14.6593 -2.0303,-3.02348 -5.4496,-7.57887 -7.59352,-10.12591 -24.24648,-28.79821 -34.38706,-59.23093 -27.92964,-83.84023 13.94101,-53.15831 53.6897,-81.61201 88.8757,-63.62138 16.32681,8.34481 19.97697,35.09437 4.5004,32.96877 -8.78458,-1.20939 -11.56984,8.09193 -3.11876,10.42643 21.11674,5.83073 29.74007,-31.38924 11.14841,-48.10816 -9.51023,-8.55005 -30.37042,-15.0478 -43.18265,-13.44992 m 288.6527,1.8141 c -30.22024,5.4679 -45.4805,40.01256 -24.97584,56.53726 4.88152,3.93235 11.85944,4.10095 14.68135,0.35549 2.18179,-2.40383 1.83763,-2.60771 0.026,-5.03915 -1.46229,-1.968 -2.83659,-2.62035 -6.27051,-2.97949 -8.32285,-0.86856 -10.88091,-10.60968 -5.61455,-21.37693 8.29726,-16.95716 38.12888,-21.88635 58.87551,-9.72644 24.29779,14.23784 47.02697,58.66286 43.43552,84.89203 -1.12151,8.1872 -6.14963,24.11822 -9.28306,29.40655 -8.12855,13.72111 -15.49846,25.15537 -18.71624,29.04009 -2.08524,2.52139 -6.55632,8.43277 -9.9354,13.14206 -3.37893,4.7093 -8.67091,11.50022 -11.7604,15.08809 -28.81644,33.48185 -36.13151,69.73065 -17.51053,86.75376 13.18605,12.04995 31.74113,8.08094 31.74113,-6.79092 0,-11.06043 -10.29448,-16.12523 -22.40686,-11.02745 -10.49594,4.41978 -14.12052,-2.29418 -10.30177,-19.08276 4.84488,-21.30363 17.4666,-33.93994 19.13034,-19.15238 1.24614,11.0458 6.36954,23.85803 11.00191,27.50086 11.57353,9.10709 27.00972,7.07312 33.34626,-4.39413 7.35886,-13.31432 -4.36126,-25.214 -19.93667,-20.24083 -14.62636,4.67632 -18.6137,-11.80442 -7.74747,-32.01959 8.55367,-15.92 13.94104,-17.11107 17.98699,-3.97633 10.79656,35.06504 47.51071,49.15631 56.8268,21.80938 7.45049,-21.8607 -17.32363,-35.12737 -30.48044,-16.31947 -6.05059,8.64898 -9.16935,9.08875 -14.71787,2.07061 -8.42916,-10.66464 -9.66414,-26.31344 -3.27639,-41.60676 7.87576,-18.87019 10.16256,-19.36128 17.75238,-3.81874 10.72327,21.95596 32.36409,30.20915 46.52504,17.74508 12.56661,-11.06412 9.13632,-29.36626 -6.11662,-32.63895 -8.52808,-1.82874 -11.3206,-0.38481 -21.71777,11.23637 -5.10143,5.69879 -9.70442,4.42711 -13.87502,-3.82975 -9.40757,-18.63564 -6.07996,-33.05307 6.18251,-26.79721 5.50097,2.80726 18.82998,5.57787 26.83025,5.57787 21.4759,0 31.04477,-21.43557 16.33418,-36.5933 -13.02113,-13.41692 -32.71592,2.83657 -22.37385,18.46341 4.07896,6.16423 2.37115,8.61966 -5.33226,7.6558 -12.52645,-1.56486 -16.72266,-5.94801 -19.48229,-20.36542 -12.06454,-63.06799 -50.84574,-98.18069 -98.84397,-89.49871 m -136.3865,64.47527 c -3.15541,2.48107 -7.36629,10.07462 -9.64215,17.38228 -1.02249,3.27635 -3.36431,10.28349 -5.20771,15.57551 -10.39712,29.82435 -14.89753,83.77058 -9.13642,109.48668 2.99416,13.36928 3.38262,16.74458 2.93551,25.65377 -0.54238,10.80758 -2.45176,16.84722 -8.46941,26.7569 -9.0851,14.96716 -3.84805,17.30165 37.03308,16.50639 30.48036,-0.59372 35.76503,-2.36016 31.46253,-10.49974 -13.25933,-25.08573 -14.46873,-31.51384 -9.90969,-52.70754 5.31032,-24.69725 5.48991,-52.20911 0.50574,-78.23303 -1.52822,-7.98566 -3.19205,-16.99014 -3.70147,-20.01361 -1.42196,-8.4621 -11.69811,-38.33775 -15.20902,-44.22348 -4.73496,-7.93067 -6.56371,-8.90551 -10.66099,-5.68413 m 82.83973,4.62867 c -20.51936,4.03131 -32.3091,23.06274 -24.2758,39.18433 6.36213,12.76825 25.67211,13.85671 35.25928,1.99 9.27566,-11.48557 10.32009,-12.0133 15.35562,-7.77676 12.37607,10.41542 4.47109,40.23612 -17.11839,64.5559 -18.85186,21.23401 -22.46538,33.08239 -18.98013,62.25441 3.53656,29.59713 11.00913,42.18948 12.8049,21.58582 1.63084,-18.70893 5.09777,-36.18648 8.54274,-43.06169 3.10042,-6.18991 19.74964,-31.97929 23.95324,-37.10637 6.24126,-7.60818 12.26249,-16.8802 16.95711,-26.11189 5.24882,-7.31478 4.65928,-13.82214 4.66174,-22.44706 0.013,-38.16916 -23.21669,-59.72934 -57.16031,-53.06669 m -187.46318,1.00784 c -23.09207,8.71862 -37.73672,38.98641 -31.14368,64.36167 3.68314,14.18288 11.37195,27.8307 24.55066,43.58578 4.00566,4.78627 8.72229,10.97248 10.48506,13.7431 1.75912,2.7706 5.39097,8.34481 8.06995,12.38345 8.53537,12.87452 10.55836,19.84869 12.32849,42.57428 1.71145,21.90467 4.71295,21.4429 10.50705,-1.60886 9.07043,-36.08021 4.91087,-55.85196 -16.66763,-79.26652 -17.1404,-18.59534 -23.86168,-33.40489 -22.96381,-50.58926 0.74396,-14.20854 6.15691,-18.96182 12.35413,-10.84423 8.91286,11.67981 13.74676,14.92317 22.2565,14.94149 27.74273,0.0622 29.82435,-39.46651 2.53239,-48.15214 -5.99932,-1.91304 -28.18617,-2.68631 -32.30911,-1.12876 m 226.07205,214.11746 c -9.39289,3.24337 -13.054,9.62016 -13.054,22.73658 0,9.73378 -0.44346,10.52538 -8.04796,14.38078 -8.00766,4.05696 -32.95049,11.295 -42.80153,12.42009 -5.03914,0.57538 -12.46042,1.42929 -16.49172,1.89838 -14.76559,1.71514 -37.20898,2.94652 -45.07003,2.4701 -19.87069,-1.20207 -36.05822,-2.73397 -41.96959,-3.97634 -3.52923,-0.74031 -10.33115,-2.1146 -15.1174,-3.05645 -15.53155,-3.04914 -32.00494,-8.95686 -35.95928,-12.89288 -3.68682,-3.66849 -4.09361,-5.64383 -2.54338,-12.34313 5.71345,-24.72658 -37.99693,-29.12803 -44.8868,-4.51873 -7.29302,26.03858 24.55067,47.51081 82.01514,55.30589 31.5908,4.28419 83.06329,6.01399 99.40842,3.34233 4.28418,-0.70366 11.70545,-1.5429 16.49172,-1.86906 4.78624,-0.3225 11.58817,-1.15443 15.1174,-1.83975 3.52923,-0.68899 10.33114,-1.9167 15.11741,-2.72663 15.16873,-2.57271 17.06342,-3.09679 28.57832,-7.9087 31.31952,-13.0871 45.02597,-29.10238 40.09688,-46.8548 -2.9685,-10.69397 -19.51155,-18.49638 -30.8836,-14.56768 m -272.01431,68.81811 c -4.56271,1.83974 -6.17523,7.72544 -3.52191,12.85255 4.22189,8.16889 16.93885,4.78258 16.93885,-4.51142 0,-6.37679 -7.19773,-10.85156 -13.41694,-8.34113 m 299.20365,2.68631 c -5.69876,5.69881 -1.87273,15.64514 6.01407,15.64514 4.34281,0 6.52707,-1.2387 8.33014,-4.72029 4.69099,-9.07412 -7.16469,-18.10424 -14.34421,-10.92485 m -265.5203,16.57235 c -7.78408,1.81408 -11.79341,11.72744 -7.53122,18.62097 4.81192,7.78777 17.55819,7.55321 21.67012,-0.39946 5.05746,-9.78142 -3.42661,-20.7136 -14.1389,-18.22151 m 227.80922,1.42195 c -5.10143,2.76693 -7.04007,10.83323 -4.01294,16.68595 5.64744,10.91752 23.45116,7.00714 23.46584,-5.15275 0.013,-9.90603 -10.72325,-16.26815 -19.4529,-11.5332 m -177.5278,9.72278 c -18.64664,5.29934 -15.15406,33.42688 4.11559,33.14835 15.83572,-0.22722 22.76592,-19.67645 10.64632,-29.87566 -4.55537,-3.8334 -9.18039,-4.85956 -14.76191,-3.27269 m 127.00821,1.14342 c -17.9833,6.61868 -13.69178,32.6023 5.38364,32.58764 7.64482,-0.004 13.91168,-4.94385 15.9713,-12.58869 3.29101,-12.21485 -9.63116,-24.3161 -21.35494,-19.99895 m -62.56957,1.37431 c -18.49272,4.62135 -24.37111,27.17102 -10.36414,39.76704 15.69646,14.11325 40.32775,1.7298 38.18382,-19.19636 -1.39263,-13.58185 -15.13205,-23.74442 -27.81968,-20.57068"
     stroke="none"
     fill="#fbfbfb"
     fill-rule="evenodd"
     style="fill:#ffffff;stroke-width:3.66483"
     sodipodi:nodetypes="csccccscccccccccccccccccscccsccccscsccccsccccccccccccccccccccsccsccscccccccccsccccccccssccccccccscccccccccsccccscccccccccccccccccccscscccccccccccccccccsccsccccscccccccscccsccccc" />
</svg>
